solid OpenSCAD_Model
  facet normal 1 0 0
    outer loop
      vertex -10 9.5 1.5
      vertex -10 8 -0.75
      vertex -10 9.5 -0.75
    endloop
  endfacet
  facet normal 1 0 0
    outer loop
      vertex -10 8 -0.75
      vertex -10 -3.5 -0.75
      vertex -10 8 -1.5
    endloop
  endfacet
  facet normal 1 0 0
    outer loop
      vertex -10 9.5 1.5
      vertex -10 -3.5 -0.75
      vertex -10 8 -0.75
    endloop
  endfacet
  facet normal 1 -0 0
    outer loop
      vertex -10 -7.5 1.5
      vertex -10 -3.5 -0.75
      vertex -10 9.5 1.5
    endloop
  endfacet
  facet normal 1 0 0
    outer loop
      vertex -10 -3.5 -0.75
      vertex -10 -7.5 1.5
      vertex -10 -6 -0.75
    endloop
  endfacet
  facet normal 1 0 0
    outer loop
      vertex -10 -6 -0.75
      vertex -10 -7.5 1.5
      vertex -10 -7.5 -0.75
    endloop
  endfacet
  facet normal 1 0 0
    outer loop
      vertex -10 8 -1.5
      vertex -10 -3.5 -0.75
      vertex -10 -3.5 -1.5
    endloop
  endfacet
  facet normal -1 0 0
    outer loop
      vertex 10 8 -1.5
      vertex 10 -3.5 -1.5
      vertex 10 8 -0.75
    endloop
  endfacet
  facet normal -1 0 0
    outer loop
      vertex 10 8 -0.75
      vertex 10 9.5 1.5
      vertex 10 9.5 -0.75
    endloop
  endfacet
  facet normal -1 0 0
    outer loop
      vertex 10 -3.5 -0.75
      vertex 10 8 -0.75
      vertex 10 -3.5 -1.5
    endloop
  endfacet
  facet normal -1 0 0
    outer loop
      vertex 10 8 -0.75
      vertex 10 -3.5 -0.75
      vertex 10 9.5 1.5
    endloop
  endfacet
  facet normal -1 0 0
    outer loop
      vertex 10 -7.5 1.5
      vertex 10 -3.5 -0.75
      vertex 10 -6 -0.75
    endloop
  endfacet
  facet normal -1 0 0
    outer loop
      vertex 10 -7.5 1.5
      vertex 10 -6 -0.75
      vertex 10 -7.5 -0.75
    endloop
  endfacet
  facet normal -1 0 0
    outer loop
      vertex 10 -3.5 -0.75
      vertex 10 -7.5 1.5
      vertex 10 9.5 1.5
    endloop
  endfacet
  facet normal 0 -1 0
    outer loop
      vertex -10 9.5 -0.75
      vertex 10 9.5 1.5
      vertex -10 9.5 1.5
    endloop
  endfacet
  facet normal 0 -1 -0
    outer loop
      vertex 10 9.5 1.5
      vertex -10 9.5 -0.75
      vertex 10 9.5 -0.75
    endloop
  endfacet
  facet normal -0 0 1
    outer loop
      vertex -10 9.5 -0.75
      vertex 10 8 -0.75
      vertex 10 9.5 -0.75
    endloop
  endfacet
  facet normal 0 0 1
    outer loop
      vertex 10 8 -0.75
      vertex -10 9.5 -0.75
      vertex -10 8 -0.75
    endloop
  endfacet
  facet normal 0 0 1
    outer loop
      vertex 10 -3.5 -0.75
      vertex 9.25 -4.70096 -0.75
      vertex 10 -6 -0.75
    endloop
  endfacet
  facet normal 0 0 1
    outer loop
      vertex 10 -3.5 -0.75
      vertex 7.75 -4.70096 -0.75
      vertex 9.25 -4.70096 -0.75
    endloop
  endfacet
  facet normal 0 0 1
    outer loop
      vertex 7.75 -4.70096 -0.75
      vertex -7 -6 -0.75
      vertex 7 -6 -0.75
    endloop
  endfacet
  facet normal 0 0 1
    outer loop
      vertex -7.75 -4.70096 -0.75
      vertex 7.75 -4.70096 -0.75
      vertex 10 -3.5 -0.75
    endloop
  endfacet
  facet normal 0 0 1
    outer loop
      vertex 7.75 -4.70096 -0.75
      vertex -7.75 -4.70096 -0.75
      vertex -7 -6 -0.75
    endloop
  endfacet
  facet normal -0 0 1
    outer loop
      vertex -10 -3.5 -0.75
      vertex -7.75 -4.70096 -0.75
      vertex 10 -3.5 -0.75
    endloop
  endfacet
  facet normal 0 0 1
    outer loop
      vertex -7.75 -4.70096 -0.75
      vertex -10 -3.5 -0.75
      vertex -9.25 -4.70096 -0.75
    endloop
  endfacet
  facet normal 0 0 1
    outer loop
      vertex -9.25 -4.70096 -0.75
      vertex -10 -3.5 -0.75
      vertex -10 -6 -0.75
    endloop
  endfacet
  facet normal -0 0 1
    outer loop
      vertex 9.25 -7.29904 -0.75
      vertex 10 -7.5 -0.75
      vertex 10 -6 -0.75
    endloop
  endfacet
  facet normal -0 0 1
    outer loop
      vertex 7.75 -7.29904 -0.75
      vertex 10 -7.5 -0.75
      vertex 9.25 -7.29904 -0.75
    endloop
  endfacet
  facet normal -0 0 1
    outer loop
      vertex -7 -6 -0.75
      vertex 7.75 -7.29904 -0.75
      vertex 7 -6 -0.75
    endloop
  endfacet
  facet normal 0 0 1
    outer loop
      vertex -7.75 -7.29904 -0.75
      vertex 7.75 -7.29904 -0.75
      vertex -7 -6 -0.75
    endloop
  endfacet
  facet normal 0 0 1
    outer loop
      vertex 7.75 -7.29904 -0.75
      vertex -7.75 -7.29904 -0.75
      vertex 10 -7.5 -0.75
    endloop
  endfacet
  facet normal 0 0 1
    outer loop
      vertex -10 -7.5 -0.75
      vertex -7.75 -7.29904 -0.75
      vertex -9.25 -7.29904 -0.75
    endloop
  endfacet
  facet normal 0 0 1
    outer loop
      vertex -7.75 -7.29904 -0.75
      vertex -10 -7.5 -0.75
      vertex 10 -7.5 -0.75
    endloop
  endfacet
  facet normal 0 0 1
    outer loop
      vertex -10 -7.5 -0.75
      vertex -9.25 -7.29904 -0.75
      vertex -10 -6 -0.75
    endloop
  endfacet
  facet normal 0 1 -0
    outer loop
      vertex 10 -7.5 -0.75
      vertex -10 -7.5 1.5
      vertex 10 -7.5 1.5
    endloop
  endfacet
  facet normal 0 1 0
    outer loop
      vertex -10 -7.5 1.5
      vertex 10 -7.5 -0.75
      vertex -10 -7.5 -0.75
    endloop
  endfacet
  facet normal 0 -1 0
    outer loop
      vertex -10 8 -1.5
      vertex 10 8 -0.75
      vertex -10 8 -0.75
    endloop
  endfacet
  facet normal 0 -1 -0
    outer loop
      vertex 10 8 -0.75
      vertex -10 8 -1.5
      vertex 10 8 -1.5
    endloop
  endfacet
  facet normal 0 1 -0
    outer loop
      vertex 10 -3.5 -1.5
      vertex -10 -3.5 -0.75
      vertex 10 -3.5 -0.75
    endloop
  endfacet
  facet normal 0 1 0
    outer loop
      vertex -10 -3.5 -0.75
      vertex 10 -3.5 -1.5
      vertex -10 -3.5 -1.5
    endloop
  endfacet
  facet normal -1 0 0
    outer loop
      vertex -25 -25 -1.5
      vertex -25 25 1.5
      vertex -25 25 -1.5
    endloop
  endfacet
  facet normal -1 -0 0
    outer loop
      vertex -25 25 1.5
      vertex -25 -25 -1.5
      vertex -25 -25 1.5
    endloop
  endfacet
  facet normal 0 0 1
    outer loop
      vertex -10 9.5 1.5
      vertex -19.75 17.701 1.5
      vertex -10 -7.5 1.5
    endloop
  endfacet
  facet normal 0 0 1
    outer loop
      vertex -10 -7.5 1.5
      vertex -18.25 -17.701 1.5
      vertex -17.5 -19 1.5
    endloop
  endfacet
  facet normal 0 0 1
    outer loop
      vertex -19.75 -17.701 1.5
      vertex -10 -7.5 1.5
      vertex -19.75 17.701 1.5
    endloop
  endfacet
  facet normal 0 0 1
    outer loop
      vertex -10 -7.5 1.5
      vertex -19.75 -17.701 1.5
      vertex -18.25 -17.701 1.5
    endloop
  endfacet
  facet normal 0 0 1
    outer loop
      vertex -20.5 19 1.5
      vertex -19.75 -17.701 1.5
      vertex -19.75 17.701 1.5
    endloop
  endfacet
  facet normal 0 0 1
    outer loop
      vertex -19.75 -17.701 1.5
      vertex -20.5 19 1.5
      vertex -20.5 -19 1.5
    endloop
  endfacet
  facet normal -0 0 1
    outer loop
      vertex 19.75 17.701 1.5
      vertex 20.5 -19 1.5
      vertex 20.5 19 1.5
    endloop
  endfacet
  facet normal 0 0 1
    outer loop
      vertex 19.75 17.701 1.5
      vertex 19.75 -17.701 1.5
      vertex 20.5 -19 1.5
    endloop
  endfacet
  facet normal 0 0 1
    outer loop
      vertex 10 9.5 1.5
      vertex 19.75 17.701 1.5
      vertex 18.25 17.701 1.5
    endloop
  endfacet
  facet normal 0 0 1
    outer loop
      vertex 19.75 17.701 1.5
      vertex 10 -7.5 1.5
      vertex 19.75 -17.701 1.5
    endloop
  endfacet
  facet normal 0 0 1
    outer loop
      vertex 10 9.5 1.5
      vertex 18.25 17.701 1.5
      vertex 17.5 19 1.5
    endloop
  endfacet
  facet normal 0 0 1
    outer loop
      vertex 19.75 -17.701 1.5
      vertex 10 -7.5 1.5
      vertex 18.25 -17.701 1.5
    endloop
  endfacet
  facet normal 0 0 1
    outer loop
      vertex 25 25 1.5
      vertex 20.5 19 1.5
      vertex 25 -25 1.5
    endloop
  endfacet
  facet normal 0 0 1
    outer loop
      vertex 25 25 1.5
      vertex 19.75 20.299 1.5
      vertex 20.5 19 1.5
    endloop
  endfacet
  facet normal 0 0 1
    outer loop
      vertex 25 25 1.5
      vertex 18.25 20.299 1.5
      vertex 19.75 20.299 1.5
    endloop
  endfacet
  facet normal 0 0 1
    outer loop
      vertex 19.75 17.701 1.5
      vertex 10 9.5 1.5
      vertex 10 -7.5 1.5
    endloop
  endfacet
  facet normal 0 0 1
    outer loop
      vertex -17.5 19 1.5
      vertex 17.5 19 1.5
      vertex 18.25 20.299 1.5
    endloop
  endfacet
  facet normal 0 0 1
    outer loop
      vertex 17.5 19 1.5
      vertex -17.5 19 1.5
      vertex 10 9.5 1.5
    endloop
  endfacet
  facet normal 0 0 1
    outer loop
      vertex -18.25 20.299 1.5
      vertex 18.25 20.299 1.5
      vertex 25 25 1.5
    endloop
  endfacet
  facet normal -0 0 1
    outer loop
      vertex -18.25 17.701 1.5
      vertex -10 9.5 1.5
      vertex -17.5 19 1.5
    endloop
  endfacet
  facet normal 0 0 1
    outer loop
      vertex 10 9.5 1.5
      vertex -17.5 19 1.5
      vertex -10 9.5 1.5
    endloop
  endfacet
  facet normal 0 0 1
    outer loop
      vertex 18.25 20.299 1.5
      vertex -18.25 20.299 1.5
      vertex -17.5 19 1.5
    endloop
  endfacet
  facet normal -0 0 1
    outer loop
      vertex -25 25 1.5
      vertex -18.25 20.299 1.5
      vertex 25 25 1.5
    endloop
  endfacet
  facet normal 0 0 1
    outer loop
      vertex -20.5 19 1.5
      vertex -25 25 1.5
      vertex -20.5 -19 1.5
    endloop
  endfacet
  facet normal 0 0 1
    outer loop
      vertex -19.75 20.299 1.5
      vertex -25 25 1.5
      vertex -20.5 19 1.5
    endloop
  endfacet
  facet normal 0 0 1
    outer loop
      vertex -18.25 20.299 1.5
      vertex -25 25 1.5
      vertex -19.75 20.299 1.5
    endloop
  endfacet
  facet normal -0 0 1
    outer loop
      vertex 20.5 -19 1.5
      vertex 25 -25 1.5
      vertex 20.5 19 1.5
    endloop
  endfacet
  facet normal -0 0 1
    outer loop
      vertex 19.75 -20.299 1.5
      vertex 25 -25 1.5
      vertex 20.5 -19 1.5
    endloop
  endfacet
  facet normal -0 0 1
    outer loop
      vertex 18.25 -20.299 1.5
      vertex 25 -25 1.5
      vertex 19.75 -20.299 1.5
    endloop
  endfacet
  facet normal 0 0 1
    outer loop
      vertex 18.25 -17.701 1.5
      vertex 10 -7.5 1.5
      vertex 17.5 -19 1.5
    endloop
  endfacet
  facet normal 0 0 1
    outer loop
      vertex -17.5 -19 1.5
      vertex 17.5 -19 1.5
      vertex 10 -7.5 1.5
    endloop
  endfacet
  facet normal 0 0 1
    outer loop
      vertex -17.5 -19 1.5
      vertex 10 -7.5 1.5
      vertex -10 -7.5 1.5
    endloop
  endfacet
  facet normal 0 0 1
    outer loop
      vertex 17.5 -19 1.5
      vertex -17.5 -19 1.5
      vertex 18.25 -20.299 1.5
    endloop
  endfacet
  facet normal -0 0 1
    outer loop
      vertex -19.75 17.701 1.5
      vertex -10 9.5 1.5
      vertex -18.25 17.701 1.5
    endloop
  endfacet
  facet normal 0 0 1
    outer loop
      vertex -18.25 -20.299 1.5
      vertex 18.25 -20.299 1.5
      vertex -17.5 -19 1.5
    endloop
  endfacet
  facet normal 0 0 1
    outer loop
      vertex 18.25 -20.299 1.5
      vertex -18.25 -20.299 1.5
      vertex 25 -25 1.5
    endloop
  endfacet
  facet normal 0 0 1
    outer loop
      vertex -25 -25 1.5
      vertex -18.25 -20.299 1.5
      vertex -19.75 -20.299 1.5
    endloop
  endfacet
  facet normal 0 0 1
    outer loop
      vertex -18.25 -20.299 1.5
      vertex -25 -25 1.5
      vertex 25 -25 1.5
    endloop
  endfacet
  facet normal 0 0 1
    outer loop
      vertex -20.5 -19 1.5
      vertex -25 -25 1.5
      vertex -19.75 -20.299 1.5
    endloop
  endfacet
  facet normal 0 0 1
    outer loop
      vertex -25 -25 1.5
      vertex -20.5 -19 1.5
      vertex -25 25 1.5
    endloop
  endfacet
  facet normal 1 -0 0
    outer loop
      vertex 25 -25 1.5
      vertex 25 25 -1.5
      vertex 25 25 1.5
    endloop
  endfacet
  facet normal 1 0 0
    outer loop
      vertex 25 25 -1.5
      vertex 25 -25 1.5
      vertex 25 -25 -1.5
    endloop
  endfacet
  facet normal 0 1 -0
    outer loop
      vertex 25 25 -1.5
      vertex -25 25 1.5
      vertex 25 25 1.5
    endloop
  endfacet
  facet normal 0 1 0
    outer loop
      vertex -25 25 1.5
      vertex 25 25 -1.5
      vertex -25 25 -1.5
    endloop
  endfacet
  facet normal -0 0 -1
    outer loop
      vertex -10 -6 -1.5
      vertex -19.75 -17.701 -1.5
      vertex -10 -3.5 -1.5
    endloop
  endfacet
  facet normal 0 0 -1
    outer loop
      vertex -10 -3.5 -1.5
      vertex -18.25 17.701 -1.5
      vertex -17.5 19 -1.5
    endloop
  endfacet
  facet normal 0 0 -1
    outer loop
      vertex -19.75 17.701 -1.5
      vertex -10 -3.5 -1.5
      vertex -19.75 -17.701 -1.5
    endloop
  endfacet
  facet normal 0 0 -1
    outer loop
      vertex -10 -3.5 -1.5
      vertex -19.75 17.701 -1.5
      vertex -18.25 17.701 -1.5
    endloop
  endfacet
  facet normal 0 0 -1
    outer loop
      vertex -20.5 -19 -1.5
      vertex -19.75 17.701 -1.5
      vertex -19.75 -17.701 -1.5
    endloop
  endfacet
  facet normal -0 0 -1
    outer loop
      vertex -19.75 17.701 -1.5
      vertex -20.5 -19 -1.5
      vertex -20.5 19 -1.5
    endloop
  endfacet
  facet normal 0 0 -1
    outer loop
      vertex 9.25 -4.70096 -1.5
      vertex 10 -3.5 -1.5
      vertex 10 -6 -1.5
    endloop
  endfacet
  facet normal 0 0 -1
    outer loop
      vertex 7.75 -4.70096 -1.5
      vertex 10 -3.5 -1.5
      vertex 9.25 -4.70096 -1.5
    endloop
  endfacet
  facet normal 0 0 -1
    outer loop
      vertex -7 -6 -1.5
      vertex 7.75 -4.70096 -1.5
      vertex 7 -6 -1.5
    endloop
  endfacet
  facet normal 0 0 -1
    outer loop
      vertex -7.75 -4.70096 -1.5
      vertex 7.75 -4.70096 -1.5
      vertex -7 -6 -1.5
    endloop
  endfacet
  facet normal 0 0 -1
    outer loop
      vertex 7.75 -4.70096 -1.5
      vertex -7.75 -4.70096 -1.5
      vertex 10 -3.5 -1.5
    endloop
  endfacet
  facet normal 0 0 -1
    outer loop
      vertex -10 -3.5 -1.5
      vertex -7.75 -4.70096 -1.5
      vertex -9.25 -4.70096 -1.5
    endloop
  endfacet
  facet normal 0 0 -1
    outer loop
      vertex -7.75 -4.70096 -1.5
      vertex -10 -3.5 -1.5
      vertex 10 -3.5 -1.5
    endloop
  endfacet
  facet normal 0 0 -1
    outer loop
      vertex -10 -3.5 -1.5
      vertex -9.25 -4.70096 -1.5
      vertex -10 -6 -1.5
    endloop
  endfacet
  facet normal 0 0 -1
    outer loop
      vertex 19.75 -17.701 -1.5
      vertex 20.5 19 -1.5
      vertex 20.5 -19 -1.5
    endloop
  endfacet
  facet normal 0 0 -1
    outer loop
      vertex 19.75 -17.701 -1.5
      vertex 19.75 17.701 -1.5
      vertex 20.5 19 -1.5
    endloop
  endfacet
  facet normal 0 0 -1
    outer loop
      vertex 10 -6 -1.5
      vertex 19.75 -17.701 -1.5
      vertex 18.25 -17.701 -1.5
    endloop
  endfacet
  facet normal 0 0 -1
    outer loop
      vertex 19.75 -17.701 -1.5
      vertex 10 -3.5 -1.5
      vertex 19.75 17.701 -1.5
    endloop
  endfacet
  facet normal 0 0 -1
    outer loop
      vertex 9.25 -7.29904 -1.5
      vertex 18.25 -17.701 -1.5
      vertex 17.5 -19 -1.5
    endloop
  endfacet
  facet normal 0 0 -1
    outer loop
      vertex 10 8 -1.5
      vertex 19.75 17.701 -1.5
      vertex 10 -3.5 -1.5
    endloop
  endfacet
  facet normal 0 0 -1
    outer loop
      vertex 25 -25 -1.5
      vertex 20.5 -19 -1.5
      vertex 25 25 -1.5
    endloop
  endfacet
  facet normal 0 0 -1
    outer loop
      vertex 25 -25 -1.5
      vertex 19.75 -20.299 -1.5
      vertex 20.5 -19 -1.5
    endloop
  endfacet
  facet normal 0 0 -1
    outer loop
      vertex 25 -25 -1.5
      vertex 18.25 -20.299 -1.5
      vertex 19.75 -20.299 -1.5
    endloop
  endfacet
  facet normal 0 0 -1
    outer loop
      vertex 19.75 -17.701 -1.5
      vertex 10 -6 -1.5
      vertex 10 -3.5 -1.5
    endloop
  endfacet
  facet normal 0 0 -1
    outer loop
      vertex 18.25 -17.701 -1.5
      vertex 9.25 -7.29904 -1.5
      vertex 10 -6 -1.5
    endloop
  endfacet
  facet normal 0 0 -1
    outer loop
      vertex -17.5 -19 -1.5
      vertex 17.5 -19 -1.5
      vertex 18.25 -20.299 -1.5
    endloop
  endfacet
  facet normal 0 0 -1
    outer loop
      vertex 17.5 -19 -1.5
      vertex 7.75 -7.29904 -1.5
      vertex 9.25 -7.29904 -1.5
    endloop
  endfacet
  facet normal 0 0 -1
    outer loop
      vertex 7.75 -7.29904 -1.5
      vertex -7 -6 -1.5
      vertex 7 -6 -1.5
    endloop
  endfacet
  facet normal 0 0 -1
    outer loop
      vertex 17.5 -19 -1.5
      vertex -17.5 -19 -1.5
      vertex 7.75 -7.29904 -1.5
    endloop
  endfacet
  facet normal 0 0 -1
    outer loop
      vertex -18.25 -20.299 -1.5
      vertex 18.25 -20.299 -1.5
      vertex 25 -25 -1.5
    endloop
  endfacet
  facet normal 0 0 -1
    outer loop
      vertex 7.75 -7.29904 -1.5
      vertex -7.75 -7.29904 -1.5
      vertex -7 -6 -1.5
    endloop
  endfacet
  facet normal -0 0 -1
    outer loop
      vertex 7.75 -7.29904 -1.5
      vertex -17.5 -19 -1.5
      vertex -7.75 -7.29904 -1.5
    endloop
  endfacet
  facet normal -0 0 -1
    outer loop
      vertex -9.25 -7.29904 -1.5
      vertex -18.25 -17.701 -1.5
      vertex -10 -6 -1.5
    endloop
  endfacet
  facet normal 0 0 -1
    outer loop
      vertex -19.75 -17.701 -1.5
      vertex -10 -6 -1.5
      vertex -18.25 -17.701 -1.5
    endloop
  endfacet
  facet normal 0 0 -1
    outer loop
      vertex -18.25 -17.701 -1.5
      vertex -9.25 -7.29904 -1.5
      vertex -17.5 -19 -1.5
    endloop
  endfacet
  facet normal -0 0 -1
    outer loop
      vertex -7.75 -7.29904 -1.5
      vertex -17.5 -19 -1.5
      vertex -9.25 -7.29904 -1.5
    endloop
  endfacet
  facet normal 0 0 -1
    outer loop
      vertex 18.25 -20.299 -1.5
      vertex -18.25 -20.299 -1.5
      vertex -17.5 -19 -1.5
    endloop
  endfacet
  facet normal 0 0 -1
    outer loop
      vertex -25 -25 -1.5
      vertex -18.25 -20.299 -1.5
      vertex 25 -25 -1.5
    endloop
  endfacet
  facet normal -0 0 -1
    outer loop
      vertex -20.5 -19 -1.5
      vertex -25 -25 -1.5
      vertex -20.5 19 -1.5
    endloop
  endfacet
  facet normal -0 0 -1
    outer loop
      vertex -19.75 -20.299 -1.5
      vertex -25 -25 -1.5
      vertex -20.5 -19 -1.5
    endloop
  endfacet
  facet normal -0 0 -1
    outer loop
      vertex -18.25 -20.299 -1.5
      vertex -25 -25 -1.5
      vertex -19.75 -20.299 -1.5
    endloop
  endfacet
  facet normal 0 0 -1
    outer loop
      vertex 20.5 19 -1.5
      vertex 25 25 -1.5
      vertex 20.5 -19 -1.5
    endloop
  endfacet
  facet normal 0 0 -1
    outer loop
      vertex 19.75 20.299 -1.5
      vertex 25 25 -1.5
      vertex 20.5 19 -1.5
    endloop
  endfacet
  facet normal 0 0 -1
    outer loop
      vertex 18.25 20.299 -1.5
      vertex 25 25 -1.5
      vertex 19.75 20.299 -1.5
    endloop
  endfacet
  facet normal -0 0 -1
    outer loop
      vertex 19.75 17.701 -1.5
      vertex 10 8 -1.5
      vertex 18.25 17.701 -1.5
    endloop
  endfacet
  facet normal -0 0 -1
    outer loop
      vertex 18.25 17.701 -1.5
      vertex 10 8 -1.5
      vertex 17.5 19 -1.5
    endloop
  endfacet
  facet normal 0 0 -1
    outer loop
      vertex -17.5 19 -1.5
      vertex 17.5 19 -1.5
      vertex 10 8 -1.5
    endloop
  endfacet
  facet normal 0 0 -1
    outer loop
      vertex -17.5 19 -1.5
      vertex 10 8 -1.5
      vertex -10 8 -1.5
    endloop
  endfacet
  facet normal 0 0 -1
    outer loop
      vertex 17.5 19 -1.5
      vertex -17.5 19 -1.5
      vertex 18.25 20.299 -1.5
    endloop
  endfacet
  facet normal 0 0 -1
    outer loop
      vertex -10 -3.5 -1.5
      vertex -17.5 19 -1.5
      vertex -10 8 -1.5
    endloop
  endfacet
  facet normal 0 0 -1
    outer loop
      vertex -18.25 20.299 -1.5
      vertex 18.25 20.299 -1.5
      vertex -17.5 19 -1.5
    endloop
  endfacet
  facet normal 0 0 -1
    outer loop
      vertex 18.25 20.299 -1.5
      vertex -18.25 20.299 -1.5
      vertex 25 25 -1.5
    endloop
  endfacet
  facet normal 0 0 -1
    outer loop
      vertex -25 25 -1.5
      vertex -18.25 20.299 -1.5
      vertex -19.75 20.299 -1.5
    endloop
  endfacet
  facet normal 0 0 -1
    outer loop
      vertex -18.25 20.299 -1.5
      vertex -25 25 -1.5
      vertex 25 25 -1.5
    endloop
  endfacet
  facet normal 0 0 -1
    outer loop
      vertex -20.5 19 -1.5
      vertex -25 25 -1.5
      vertex -19.75 20.299 -1.5
    endloop
  endfacet
  facet normal 0 0 -1
    outer loop
      vertex -25 25 -1.5
      vertex -20.5 19 -1.5
      vertex -25 -25 -1.5
    endloop
  endfacet
  facet normal 0 -1 0
    outer loop
      vertex -25 -25 -1.5
      vertex 25 -25 1.5
      vertex -25 -25 1.5
    endloop
  endfacet
  facet normal 0 -1 -0
    outer loop
      vertex 25 -25 1.5
      vertex -25 -25 -1.5
      vertex 25 -25 -1.5
    endloop
  endfacet
  facet normal -0.866025 -0.5 0
    outer loop
      vertex 20.5 19 -1.5
      vertex 19.75 20.299 1.5
      vertex 19.75 20.299 -1.5
    endloop
  endfacet
  facet normal -0.866025 -0.5 0
    outer loop
      vertex 19.75 20.299 1.5
      vertex 20.5 19 -1.5
      vertex 20.5 19 1.5
    endloop
  endfacet
  facet normal 0 1 -0
    outer loop
      vertex 19.75 17.701 -1.5
      vertex 18.25 17.701 1.5
      vertex 19.75 17.701 1.5
    endloop
  endfacet
  facet normal 0 1 0
    outer loop
      vertex 18.25 17.701 1.5
      vertex 19.75 17.701 -1.5
      vertex 18.25 17.701 -1.5
    endloop
  endfacet
  facet normal 0.866025 -0.5 0
    outer loop
      vertex 17.5 19 1.5
      vertex 18.25 20.299 -1.5
      vertex 18.25 20.299 1.5
    endloop
  endfacet
  facet normal 0.866025 -0.5 0
    outer loop
      vertex 18.25 20.299 -1.5
      vertex 17.5 19 1.5
      vertex 17.5 19 -1.5
    endloop
  endfacet
  facet normal 0 -1 0
    outer loop
      vertex 18.25 20.299 -1.5
      vertex 19.75 20.299 1.5
      vertex 18.25 20.299 1.5
    endloop
  endfacet
  facet normal 0 -1 -0
    outer loop
      vertex 19.75 20.299 1.5
      vertex 18.25 20.299 -1.5
      vertex 19.75 20.299 -1.5
    endloop
  endfacet
  facet normal 0.866025 0.5 0
    outer loop
      vertex 18.25 17.701 1.5
      vertex 17.5 19 -1.5
      vertex 17.5 19 1.5
    endloop
  endfacet
  facet normal 0.866025 0.5 0
    outer loop
      vertex 17.5 19 -1.5
      vertex 18.25 17.701 1.5
      vertex 18.25 17.701 -1.5
    endloop
  endfacet
  facet normal -0.866025 0.5 0
    outer loop
      vertex 19.75 17.701 -1.5
      vertex 20.5 19 1.5
      vertex 20.5 19 -1.5
    endloop
  endfacet
  facet normal -0.866025 0.5 0
    outer loop
      vertex 20.5 19 1.5
      vertex 19.75 17.701 -1.5
      vertex 19.75 17.701 1.5
    endloop
  endfacet
  facet normal -0.866025 -0.5 0
    outer loop
      vertex 20.5 -19 -1.5
      vertex 19.75 -17.701 1.5
      vertex 19.75 -17.701 -1.5
    endloop
  endfacet
  facet normal -0.866025 -0.5 0
    outer loop
      vertex 19.75 -17.701 1.5
      vertex 20.5 -19 -1.5
      vertex 20.5 -19 1.5
    endloop
  endfacet
  facet normal 0.866025 -0.5 0
    outer loop
      vertex 17.5 -19 1.5
      vertex 18.25 -17.701 -1.5
      vertex 18.25 -17.701 1.5
    endloop
  endfacet
  facet normal 0.866025 -0.5 0
    outer loop
      vertex 18.25 -17.701 -1.5
      vertex 17.5 -19 1.5
      vertex 17.5 -19 -1.5
    endloop
  endfacet
  facet normal 0 -1 0
    outer loop
      vertex 18.25 -17.701 -1.5
      vertex 19.75 -17.701 1.5
      vertex 18.25 -17.701 1.5
    endloop
  endfacet
  facet normal 0 -1 -0
    outer loop
      vertex 19.75 -17.701 1.5
      vertex 18.25 -17.701 -1.5
      vertex 19.75 -17.701 -1.5
    endloop
  endfacet
  facet normal -0.866025 0.5 0
    outer loop
      vertex 19.75 -20.299 -1.5
      vertex 20.5 -19 1.5
      vertex 20.5 -19 -1.5
    endloop
  endfacet
  facet normal -0.866025 0.5 0
    outer loop
      vertex 20.5 -19 1.5
      vertex 19.75 -20.299 -1.5
      vertex 19.75 -20.299 1.5
    endloop
  endfacet
  facet normal 0 1 -0
    outer loop
      vertex 19.75 -20.299 -1.5
      vertex 18.25 -20.299 1.5
      vertex 19.75 -20.299 1.5
    endloop
  endfacet
  facet normal 0 1 0
    outer loop
      vertex 18.25 -20.299 1.5
      vertex 19.75 -20.299 -1.5
      vertex 18.25 -20.299 -1.5
    endloop
  endfacet
  facet normal 0.866025 0.5 0
    outer loop
      vertex 18.25 -20.299 1.5
      vertex 17.5 -19 -1.5
      vertex 17.5 -19 1.5
    endloop
  endfacet
  facet normal 0.866025 0.5 0
    outer loop
      vertex 17.5 -19 -1.5
      vertex 18.25 -20.299 1.5
      vertex 18.25 -20.299 -1.5
    endloop
  endfacet
  facet normal -0.866025 -0.5 0
    outer loop
      vertex -17.5 19 -1.5
      vertex -18.25 20.299 1.5
      vertex -18.25 20.299 -1.5
    endloop
  endfacet
  facet normal -0.866025 -0.5 0
    outer loop
      vertex -18.25 20.299 1.5
      vertex -17.5 19 -1.5
      vertex -17.5 19 1.5
    endloop
  endfacet
  facet normal 0 1 -0
    outer loop
      vertex -18.25 17.701 -1.5
      vertex -19.75 17.701 1.5
      vertex -18.25 17.701 1.5
    endloop
  endfacet
  facet normal 0 1 0
    outer loop
      vertex -19.75 17.701 1.5
      vertex -18.25 17.701 -1.5
      vertex -19.75 17.701 -1.5
    endloop
  endfacet
  facet normal 0.866025 -0.5 0
    outer loop
      vertex -20.5 19 1.5
      vertex -19.75 20.299 -1.5
      vertex -19.75 20.299 1.5
    endloop
  endfacet
  facet normal 0.866025 -0.5 0
    outer loop
      vertex -19.75 20.299 -1.5
      vertex -20.5 19 1.5
      vertex -20.5 19 -1.5
    endloop
  endfacet
  facet normal 0 -1 0
    outer loop
      vertex -19.75 20.299 -1.5
      vertex -18.25 20.299 1.5
      vertex -19.75 20.299 1.5
    endloop
  endfacet
  facet normal 0 -1 -0
    outer loop
      vertex -18.25 20.299 1.5
      vertex -19.75 20.299 -1.5
      vertex -18.25 20.299 -1.5
    endloop
  endfacet
  facet normal 0.866025 0.5 0
    outer loop
      vertex -19.75 17.701 1.5
      vertex -20.5 19 -1.5
      vertex -20.5 19 1.5
    endloop
  endfacet
  facet normal 0.866025 0.5 0
    outer loop
      vertex -20.5 19 -1.5
      vertex -19.75 17.701 1.5
      vertex -19.75 17.701 -1.5
    endloop
  endfacet
  facet normal -0.866025 0.5 0
    outer loop
      vertex -18.25 17.701 -1.5
      vertex -17.5 19 1.5
      vertex -17.5 19 -1.5
    endloop
  endfacet
  facet normal -0.866025 0.5 0
    outer loop
      vertex -17.5 19 1.5
      vertex -18.25 17.701 -1.5
      vertex -18.25 17.701 1.5
    endloop
  endfacet
  facet normal -0.866025 -0.5 0
    outer loop
      vertex -17.5 -19 -1.5
      vertex -18.25 -17.701 1.5
      vertex -18.25 -17.701 -1.5
    endloop
  endfacet
  facet normal -0.866025 -0.5 0
    outer loop
      vertex -18.25 -17.701 1.5
      vertex -17.5 -19 -1.5
      vertex -17.5 -19 1.5
    endloop
  endfacet
  facet normal 0.866025 -0.5 0
    outer loop
      vertex -20.5 -19 1.5
      vertex -19.75 -17.701 -1.5
      vertex -19.75 -17.701 1.5
    endloop
  endfacet
  facet normal 0.866025 -0.5 0
    outer loop
      vertex -19.75 -17.701 -1.5
      vertex -20.5 -19 1.5
      vertex -20.5 -19 -1.5
    endloop
  endfacet
  facet normal 0 -1 0
    outer loop
      vertex -19.75 -17.701 -1.5
      vertex -18.25 -17.701 1.5
      vertex -19.75 -17.701 1.5
    endloop
  endfacet
  facet normal 0 -1 -0
    outer loop
      vertex -18.25 -17.701 1.5
      vertex -19.75 -17.701 -1.5
      vertex -18.25 -17.701 -1.5
    endloop
  endfacet
  facet normal 0.866025 0.5 0
    outer loop
      vertex -19.75 -20.299 1.5
      vertex -20.5 -19 -1.5
      vertex -20.5 -19 1.5
    endloop
  endfacet
  facet normal 0.866025 0.5 0
    outer loop
      vertex -20.5 -19 -1.5
      vertex -19.75 -20.299 1.5
      vertex -19.75 -20.299 -1.5
    endloop
  endfacet
  facet normal -0.866025 0.5 0
    outer loop
      vertex -18.25 -20.299 -1.5
      vertex -17.5 -19 1.5
      vertex -17.5 -19 -1.5
    endloop
  endfacet
  facet normal -0.866025 0.5 0
    outer loop
      vertex -17.5 -19 1.5
      vertex -18.25 -20.299 -1.5
      vertex -18.25 -20.299 1.5
    endloop
  endfacet
  facet normal 0 1 -0
    outer loop
      vertex -18.25 -20.299 -1.5
      vertex -19.75 -20.299 1.5
      vertex -18.25 -20.299 1.5
    endloop
  endfacet
  facet normal 0 1 0
    outer loop
      vertex -19.75 -20.299 1.5
      vertex -18.25 -20.299 -1.5
      vertex -19.75 -20.299 -1.5
    endloop
  endfacet
  facet normal -0.866026 -0.5 0
    outer loop
      vertex -7 -6 -1.5
      vertex -7.75 -4.70096 -0.75
      vertex -7.75 -4.70096 -1.5
    endloop
  endfacet
  facet normal -0.866026 -0.5 0
    outer loop
      vertex -7.75 -4.70096 -0.75
      vertex -7 -6 -1.5
      vertex -7 -6 -0.75
    endloop
  endfacet
  facet normal 0.866026 -0.5 0
    outer loop
      vertex -10 -6 -0.75
      vertex -9.25 -4.70096 -1.5
      vertex -9.25 -4.70096 -0.75
    endloop
  endfacet
  facet normal 0.866026 -0.5 0
    outer loop
      vertex -9.25 -4.70096 -1.5
      vertex -10 -6 -0.75
      vertex -10 -6 -1.5
    endloop
  endfacet
  facet normal 0 -1 0
    outer loop
      vertex -9.25 -4.70096 -1.5
      vertex -7.75 -4.70096 -0.75
      vertex -9.25 -4.70096 -0.75
    endloop
  endfacet
  facet normal 0 -1 -0
    outer loop
      vertex -7.75 -4.70096 -0.75
      vertex -9.25 -4.70096 -1.5
      vertex -7.75 -4.70096 -1.5
    endloop
  endfacet
  facet normal -0.866025 0.5 0
    outer loop
      vertex -7.75 -7.29904 -1.5
      vertex -7 -6 -0.75
      vertex -7 -6 -1.5
    endloop
  endfacet
  facet normal -0.866025 0.5 0
    outer loop
      vertex -7 -6 -0.75
      vertex -7.75 -7.29904 -1.5
      vertex -7.75 -7.29904 -0.75
    endloop
  endfacet
  facet normal 0 1 -0
    outer loop
      vertex -7.75 -7.29904 -1.5
      vertex -9.25 -7.29904 -0.75
      vertex -7.75 -7.29904 -0.75
    endloop
  endfacet
  facet normal 0 1 0
    outer loop
      vertex -9.25 -7.29904 -0.75
      vertex -7.75 -7.29904 -1.5
      vertex -9.25 -7.29904 -1.5
    endloop
  endfacet
  facet normal 0.866025 0.5 0
    outer loop
      vertex -9.25 -7.29904 -0.75
      vertex -10 -6 -1.5
      vertex -10 -6 -0.75
    endloop
  endfacet
  facet normal 0.866025 0.5 0
    outer loop
      vertex -10 -6 -1.5
      vertex -9.25 -7.29904 -0.75
      vertex -9.25 -7.29904 -1.5
    endloop
  endfacet
  facet normal -0.866026 -0.5 0
    outer loop
      vertex 10 -6 -1.5
      vertex 9.25 -4.70096 -0.75
      vertex 9.25 -4.70096 -1.5
    endloop
  endfacet
  facet normal -0.866026 -0.5 0
    outer loop
      vertex 9.25 -4.70096 -0.75
      vertex 10 -6 -1.5
      vertex 10 -6 -0.75
    endloop
  endfacet
  facet normal 0 -1 0
    outer loop
      vertex 7.75 -4.70096 -1.5
      vertex 9.25 -4.70096 -0.75
      vertex 7.75 -4.70096 -0.75
    endloop
  endfacet
  facet normal 0 -1 -0
    outer loop
      vertex 9.25 -4.70096 -0.75
      vertex 7.75 -4.70096 -1.5
      vertex 9.25 -4.70096 -1.5
    endloop
  endfacet
  facet normal 0 1 -0
    outer loop
      vertex 9.25 -7.29904 -1.5
      vertex 7.75 -7.29904 -0.75
      vertex 9.25 -7.29904 -0.75
    endloop
  endfacet
  facet normal 0 1 0
    outer loop
      vertex 7.75 -7.29904 -0.75
      vertex 9.25 -7.29904 -1.5
      vertex 7.75 -7.29904 -1.5
    endloop
  endfacet
  facet normal 0.866026 -0.5 0
    outer loop
      vertex 7 -6 -0.75
      vertex 7.75 -4.70096 -1.5
      vertex 7.75 -4.70096 -0.75
    endloop
  endfacet
  facet normal 0.866026 -0.5 0
    outer loop
      vertex 7.75 -4.70096 -1.5
      vertex 7 -6 -0.75
      vertex 7 -6 -1.5
    endloop
  endfacet
  facet normal -0.866025 0.5 0
    outer loop
      vertex 9.25 -7.29904 -1.5
      vertex 10 -6 -0.75
      vertex 10 -6 -1.5
    endloop
  endfacet
  facet normal -0.866025 0.5 0
    outer loop
      vertex 10 -6 -0.75
      vertex 9.25 -7.29904 -1.5
      vertex 9.25 -7.29904 -0.75
    endloop
  endfacet
  facet normal 0.866026 0.5 0
    outer loop
      vertex 7.75 -7.29904 -0.75
      vertex 7 -6 -1.5
      vertex 7 -6 -0.75
    endloop
  endfacet
  facet normal 0.866026 0.5 0
    outer loop
      vertex 7 -6 -1.5
      vertex 7.75 -7.29904 -0.75
      vertex 7.75 -7.29904 -1.5
    endloop
  endfacet
endsolid OpenSCAD_Model
